<mxfile host="app.diagrams.net" modified="2024-01-11T14:07:10.883Z" agent="Mozilla/5.0 (Windows NT 10.0; Win64; x64) AppleWebKit/537.36 (KHTML, like Gecko) Chrome/120.0.0.0 Safari/537.36 Edg/120.0.0.0" etag="pXqg1V4YTb76SHZogh6n" version="22.1.17" type="github">
  <diagram name="Page-1" id="93jvXwuiPi1z2pxK-ovB">
    <mxGraphModel dx="1243" dy="556" grid="1" gridSize="10" guides="1" tooltips="1" connect="1" arrows="1" fold="1" page="1" pageScale="1" pageWidth="850" pageHeight="1100" math="0" shadow="0">
      <root>
        <mxCell id="0" />
        <mxCell id="1" parent="0" />
        <mxCell id="2X9QtguCRYKD3YLOp3lU-1" value="" style="rounded=0;whiteSpace=wrap;html=1;" parent="1" vertex="1">
          <mxGeometry x="40" y="40" width="640" height="400" as="geometry" />
        </mxCell>
        <mxCell id="2X9QtguCRYKD3YLOp3lU-7" value="" style="group" parent="1" vertex="1" connectable="0">
          <mxGeometry x="40" y="40" width="280" height="50" as="geometry" />
        </mxCell>
        <mxCell id="2X9QtguCRYKD3YLOp3lU-6" value="" style="rounded=0;whiteSpace=wrap;html=1;" parent="2X9QtguCRYKD3YLOp3lU-7" vertex="1">
          <mxGeometry width="280" height="50" as="geometry" />
        </mxCell>
        <mxCell id="2X9QtguCRYKD3YLOp3lU-2" value="&lt;i style=&quot;&quot;&gt;&lt;u&gt;Web Maze Generator&lt;/u&gt;&lt;/i&gt;" style="text;strokeColor=none;fillColor=none;html=1;fontSize=24;fontStyle=1;verticalAlign=middle;align=center;" parent="2X9QtguCRYKD3YLOp3lU-7" vertex="1">
          <mxGeometry width="280" height="50" as="geometry" />
        </mxCell>
        <mxCell id="2X9QtguCRYKD3YLOp3lU-9" value="" style="group" parent="1" vertex="1" connectable="0">
          <mxGeometry x="520" y="40" width="160" height="50" as="geometry" />
        </mxCell>
        <mxCell id="2X9QtguCRYKD3YLOp3lU-8" value="" style="rounded=0;whiteSpace=wrap;html=1;" parent="2X9QtguCRYKD3YLOp3lU-9" vertex="1">
          <mxGeometry width="160" height="50" as="geometry" />
        </mxCell>
        <mxCell id="2X9QtguCRYKD3YLOp3lU-5" value="&lt;h2&gt;&lt;u&gt;Saved Mazes&lt;/u&gt;&lt;/h2&gt;" style="text;html=1;strokeColor=none;fillColor=none;align=center;verticalAlign=middle;whiteSpace=wrap;rounded=0;" parent="2X9QtguCRYKD3YLOp3lU-9" vertex="1">
          <mxGeometry width="160" height="50" as="geometry" />
        </mxCell>
        <mxCell id="2X9QtguCRYKD3YLOp3lU-10" value="" style="endArrow=none;html=1;rounded=0;entryX=0;entryY=1;entryDx=0;entryDy=0;exitX=1;exitY=1;exitDx=0;exitDy=0;" parent="1" source="2X9QtguCRYKD3YLOp3lU-2" target="2X9QtguCRYKD3YLOp3lU-5" edge="1">
          <mxGeometry width="50" height="50" relative="1" as="geometry">
            <mxPoint x="380" y="260" as="sourcePoint" />
            <mxPoint x="430" y="210" as="targetPoint" />
          </mxGeometry>
        </mxCell>
        <mxCell id="2X9QtguCRYKD3YLOp3lU-17" value="" style="group" parent="1" vertex="1" connectable="0">
          <mxGeometry x="300" y="112.5" width="120" height="45" as="geometry" />
        </mxCell>
        <mxCell id="2X9QtguCRYKD3YLOp3lU-12" value="" style="rounded=0;whiteSpace=wrap;html=1;" parent="2X9QtguCRYKD3YLOp3lU-17" vertex="1">
          <mxGeometry y="20" width="50" height="20" as="geometry" />
        </mxCell>
        <mxCell id="2X9QtguCRYKD3YLOp3lU-13" value="" style="rounded=0;whiteSpace=wrap;html=1;" parent="2X9QtguCRYKD3YLOp3lU-17" vertex="1">
          <mxGeometry x="70" y="20" width="50" height="20" as="geometry" />
        </mxCell>
        <mxCell id="2X9QtguCRYKD3YLOp3lU-14" value="x" style="text;html=1;strokeColor=none;fillColor=none;align=center;verticalAlign=middle;whiteSpace=wrap;rounded=0;" parent="2X9QtguCRYKD3YLOp3lU-17" vertex="1">
          <mxGeometry x="30" y="15" width="60" height="30" as="geometry" />
        </mxCell>
        <mxCell id="2X9QtguCRYKD3YLOp3lU-15" value="Width" style="text;html=1;strokeColor=none;fillColor=none;align=center;verticalAlign=middle;whiteSpace=wrap;rounded=0;" parent="2X9QtguCRYKD3YLOp3lU-17" vertex="1">
          <mxGeometry x="5" width="40" height="20" as="geometry" />
        </mxCell>
        <mxCell id="2X9QtguCRYKD3YLOp3lU-16" value="Height" style="text;html=1;strokeColor=none;fillColor=none;align=center;verticalAlign=middle;whiteSpace=wrap;rounded=0;" parent="2X9QtguCRYKD3YLOp3lU-17" vertex="1">
          <mxGeometry x="75" width="40" height="20" as="geometry" />
        </mxCell>
        <mxCell id="2X9QtguCRYKD3YLOp3lU-18" value="&lt;i&gt;maze&lt;/i&gt;" style="rounded=0;whiteSpace=wrap;html=1;" parent="1" vertex="1">
          <mxGeometry x="220" y="170" width="440" height="240" as="geometry" />
        </mxCell>
        <mxCell id="2X9QtguCRYKD3YLOp3lU-22" value="" style="group" parent="1" vertex="1" connectable="0">
          <mxGeometry x="450" y="120" width="150" height="30" as="geometry" />
        </mxCell>
        <mxCell id="2X9QtguCRYKD3YLOp3lU-19" value="&lt;u&gt;Generate&lt;/u&gt;" style="rounded=1;whiteSpace=wrap;html=1;" parent="2X9QtguCRYKD3YLOp3lU-22" vertex="1">
          <mxGeometry width="80" height="30" as="geometry" />
        </mxCell>
        <mxCell id="2X9QtguCRYKD3YLOp3lU-20" value="&lt;u&gt;Save&lt;/u&gt;" style="rounded=1;whiteSpace=wrap;html=1;" parent="2X9QtguCRYKD3YLOp3lU-22" vertex="1">
          <mxGeometry x="90" width="60" height="30" as="geometry" />
        </mxCell>
        <mxCell id="2X9QtguCRYKD3YLOp3lU-23" value="" style="rounded=0;whiteSpace=wrap;html=1;" parent="1" vertex="1">
          <mxGeometry x="720" y="40" width="640" height="400" as="geometry" />
        </mxCell>
        <mxCell id="2X9QtguCRYKD3YLOp3lU-24" value="" style="group" parent="1" vertex="1" connectable="0">
          <mxGeometry x="720" y="40" width="280" height="50" as="geometry" />
        </mxCell>
        <mxCell id="2X9QtguCRYKD3YLOp3lU-25" value="" style="rounded=0;whiteSpace=wrap;html=1;" parent="2X9QtguCRYKD3YLOp3lU-24" vertex="1">
          <mxGeometry width="280" height="50" as="geometry" />
        </mxCell>
        <mxCell id="2X9QtguCRYKD3YLOp3lU-26" value="&lt;i style=&quot;&quot;&gt;&lt;u&gt;Web Maze Generator&lt;/u&gt;&lt;/i&gt;" style="text;strokeColor=none;fillColor=none;html=1;fontSize=24;fontStyle=1;verticalAlign=middle;align=center;" parent="2X9QtguCRYKD3YLOp3lU-24" vertex="1">
          <mxGeometry width="280" height="50" as="geometry" />
        </mxCell>
        <mxCell id="2X9QtguCRYKD3YLOp3lU-27" value="" style="group" parent="1" vertex="1" connectable="0">
          <mxGeometry x="1200" y="40" width="160" height="50" as="geometry" />
        </mxCell>
        <mxCell id="2X9QtguCRYKD3YLOp3lU-28" value="" style="rounded=0;whiteSpace=wrap;html=1;" parent="2X9QtguCRYKD3YLOp3lU-27" vertex="1">
          <mxGeometry width="160" height="50" as="geometry" />
        </mxCell>
        <mxCell id="2X9QtguCRYKD3YLOp3lU-29" value="&lt;h2&gt;&lt;u&gt;Saved Mazes&lt;/u&gt;&lt;/h2&gt;" style="text;html=1;strokeColor=none;fillColor=none;align=center;verticalAlign=middle;whiteSpace=wrap;rounded=0;" parent="2X9QtguCRYKD3YLOp3lU-27" vertex="1">
          <mxGeometry width="160" height="50" as="geometry" />
        </mxCell>
        <mxCell id="2X9QtguCRYKD3YLOp3lU-30" value="" style="endArrow=none;html=1;rounded=0;entryX=0;entryY=1;entryDx=0;entryDy=0;exitX=1;exitY=1;exitDx=0;exitDy=0;" parent="1" source="2X9QtguCRYKD3YLOp3lU-26" target="2X9QtguCRYKD3YLOp3lU-29" edge="1">
          <mxGeometry width="50" height="50" relative="1" as="geometry">
            <mxPoint x="1060" y="260" as="sourcePoint" />
            <mxPoint x="1110" y="210" as="targetPoint" />
          </mxGeometry>
        </mxCell>
        <mxCell id="2X9QtguCRYKD3YLOp3lU-47" value="&lt;u&gt;Create an account&lt;/u&gt;" style="rounded=1;whiteSpace=wrap;html=1;" parent="1" vertex="1">
          <mxGeometry x="980" y="390" width="120" height="20" as="geometry" />
        </mxCell>
        <mxCell id="2X9QtguCRYKD3YLOp3lU-48" value="" style="group" parent="1" vertex="1" connectable="0">
          <mxGeometry x="940" y="170" width="200" height="120" as="geometry" />
        </mxCell>
        <mxCell id="2X9QtguCRYKD3YLOp3lU-42" value="" style="rounded=0;whiteSpace=wrap;html=1;" parent="2X9QtguCRYKD3YLOp3lU-48" vertex="1">
          <mxGeometry x="80" width="120" height="30" as="geometry" />
        </mxCell>
        <mxCell id="2X9QtguCRYKD3YLOp3lU-43" value="" style="rounded=0;whiteSpace=wrap;html=1;" parent="2X9QtguCRYKD3YLOp3lU-48" vertex="1">
          <mxGeometry x="80" y="40" width="120" height="30" as="geometry" />
        </mxCell>
        <mxCell id="2X9QtguCRYKD3YLOp3lU-44" value="Username:" style="text;html=1;strokeColor=none;fillColor=none;align=left;verticalAlign=middle;whiteSpace=wrap;rounded=0;" parent="2X9QtguCRYKD3YLOp3lU-48" vertex="1">
          <mxGeometry width="70" height="30" as="geometry" />
        </mxCell>
        <mxCell id="2X9QtguCRYKD3YLOp3lU-45" value="Password:" style="text;html=1;strokeColor=none;fillColor=none;align=left;verticalAlign=middle;whiteSpace=wrap;rounded=0;" parent="2X9QtguCRYKD3YLOp3lU-48" vertex="1">
          <mxGeometry y="40" width="70" height="30" as="geometry" />
        </mxCell>
        <mxCell id="2X9QtguCRYKD3YLOp3lU-46" value="&lt;u&gt;Login&lt;/u&gt;" style="rounded=1;whiteSpace=wrap;html=1;" parent="2X9QtguCRYKD3YLOp3lU-48" vertex="1">
          <mxGeometry x="60" y="90" width="80" height="30" as="geometry" />
        </mxCell>
        <mxCell id="2X9QtguCRYKD3YLOp3lU-49" value="" style="rounded=0;whiteSpace=wrap;html=1;" parent="1" vertex="1">
          <mxGeometry x="720" y="480" width="640" height="400" as="geometry" />
        </mxCell>
        <mxCell id="2X9QtguCRYKD3YLOp3lU-50" value="" style="group" parent="1" vertex="1" connectable="0">
          <mxGeometry x="720" y="480" width="280" height="50" as="geometry" />
        </mxCell>
        <mxCell id="2X9QtguCRYKD3YLOp3lU-51" value="" style="rounded=0;whiteSpace=wrap;html=1;" parent="2X9QtguCRYKD3YLOp3lU-50" vertex="1">
          <mxGeometry width="280" height="50" as="geometry" />
        </mxCell>
        <mxCell id="2X9QtguCRYKD3YLOp3lU-52" value="&lt;i style=&quot;&quot;&gt;&lt;u&gt;Web Maze Generator&lt;/u&gt;&lt;/i&gt;" style="text;strokeColor=none;fillColor=none;html=1;fontSize=24;fontStyle=1;verticalAlign=middle;align=center;" parent="2X9QtguCRYKD3YLOp3lU-50" vertex="1">
          <mxGeometry width="280" height="50" as="geometry" />
        </mxCell>
        <mxCell id="2X9QtguCRYKD3YLOp3lU-53" value="" style="group" parent="1" vertex="1" connectable="0">
          <mxGeometry x="1200" y="480" width="160" height="50" as="geometry" />
        </mxCell>
        <mxCell id="2X9QtguCRYKD3YLOp3lU-54" value="" style="rounded=0;whiteSpace=wrap;html=1;" parent="2X9QtguCRYKD3YLOp3lU-53" vertex="1">
          <mxGeometry width="160" height="50" as="geometry" />
        </mxCell>
        <mxCell id="2X9QtguCRYKD3YLOp3lU-55" value="&lt;h2&gt;&lt;u&gt;Saved Mazes&lt;/u&gt;&lt;/h2&gt;" style="text;html=1;strokeColor=none;fillColor=none;align=center;verticalAlign=middle;whiteSpace=wrap;rounded=0;" parent="2X9QtguCRYKD3YLOp3lU-53" vertex="1">
          <mxGeometry width="160" height="50" as="geometry" />
        </mxCell>
        <mxCell id="2X9QtguCRYKD3YLOp3lU-56" value="" style="endArrow=none;html=1;rounded=0;entryX=0;entryY=1;entryDx=0;entryDy=0;exitX=1;exitY=1;exitDx=0;exitDy=0;" parent="1" source="2X9QtguCRYKD3YLOp3lU-52" target="2X9QtguCRYKD3YLOp3lU-55" edge="1">
          <mxGeometry width="50" height="50" relative="1" as="geometry">
            <mxPoint x="1060" y="700" as="sourcePoint" />
            <mxPoint x="1110" y="650" as="targetPoint" />
          </mxGeometry>
        </mxCell>
        <mxCell id="2X9QtguCRYKD3YLOp3lU-57" value="&lt;u&gt;Create Account&lt;/u&gt;" style="rounded=1;whiteSpace=wrap;html=1;" parent="1" vertex="1">
          <mxGeometry x="980" y="740" width="120" height="30" as="geometry" />
        </mxCell>
        <mxCell id="2X9QtguCRYKD3YLOp3lU-59" value="" style="rounded=0;whiteSpace=wrap;html=1;container=0;" parent="1" vertex="1">
          <mxGeometry x="1020" y="610" width="120" height="30" as="geometry" />
        </mxCell>
        <mxCell id="2X9QtguCRYKD3YLOp3lU-60" value="" style="rounded=0;whiteSpace=wrap;html=1;container=0;" parent="1" vertex="1">
          <mxGeometry x="1020" y="650" width="120" height="30" as="geometry" />
        </mxCell>
        <mxCell id="2X9QtguCRYKD3YLOp3lU-61" value="Username:" style="text;html=1;strokeColor=none;fillColor=none;align=left;verticalAlign=middle;whiteSpace=wrap;rounded=0;container=0;" parent="1" vertex="1">
          <mxGeometry x="940" y="610" width="70" height="30" as="geometry" />
        </mxCell>
        <mxCell id="2X9QtguCRYKD3YLOp3lU-62" value="Password:" style="text;html=1;strokeColor=none;fillColor=none;align=left;verticalAlign=middle;whiteSpace=wrap;rounded=0;container=0;" parent="1" vertex="1">
          <mxGeometry x="940" y="650" width="70" height="30" as="geometry" />
        </mxCell>
        <mxCell id="2X9QtguCRYKD3YLOp3lU-64" value="" style="rounded=0;whiteSpace=wrap;html=1;container=0;" parent="1" vertex="1">
          <mxGeometry x="1020" y="690" width="120" height="30" as="geometry" />
        </mxCell>
        <mxCell id="2X9QtguCRYKD3YLOp3lU-65" value="Repeat Password:" style="text;html=1;strokeColor=none;fillColor=none;align=left;verticalAlign=middle;whiteSpace=wrap;rounded=0;container=0;" parent="1" vertex="1">
          <mxGeometry x="940" y="690" width="70" height="30" as="geometry" />
        </mxCell>
        <mxCell id="2X9QtguCRYKD3YLOp3lU-66" value="" style="rounded=0;whiteSpace=wrap;html=1;" parent="1" vertex="1">
          <mxGeometry x="40" y="480" width="640" height="400" as="geometry" />
        </mxCell>
        <mxCell id="2X9QtguCRYKD3YLOp3lU-67" value="" style="group" parent="1" vertex="1" connectable="0">
          <mxGeometry x="40" y="480" width="280" height="50" as="geometry" />
        </mxCell>
        <mxCell id="2X9QtguCRYKD3YLOp3lU-68" value="" style="rounded=0;whiteSpace=wrap;html=1;" parent="2X9QtguCRYKD3YLOp3lU-67" vertex="1">
          <mxGeometry width="280" height="50" as="geometry" />
        </mxCell>
        <mxCell id="2X9QtguCRYKD3YLOp3lU-69" value="&lt;i style=&quot;&quot;&gt;&lt;u&gt;Web Maze Generator&lt;/u&gt;&lt;/i&gt;" style="text;strokeColor=none;fillColor=none;html=1;fontSize=24;fontStyle=1;verticalAlign=middle;align=center;" parent="2X9QtguCRYKD3YLOp3lU-67" vertex="1">
          <mxGeometry width="280" height="50" as="geometry" />
        </mxCell>
        <mxCell id="2X9QtguCRYKD3YLOp3lU-84" value="" style="group" parent="1" vertex="1" connectable="0">
          <mxGeometry x="520" y="480" width="160" height="50" as="geometry" />
        </mxCell>
        <mxCell id="2X9QtguCRYKD3YLOp3lU-71" value="" style="rounded=0;whiteSpace=wrap;html=1;container=0;fillColor=#E6E6E6;" parent="2X9QtguCRYKD3YLOp3lU-84" vertex="1">
          <mxGeometry width="160" height="50" as="geometry" />
        </mxCell>
        <mxCell id="2X9QtguCRYKD3YLOp3lU-72" value="&lt;h2&gt;&lt;u&gt;Saved Mazes&lt;/u&gt;&lt;/h2&gt;" style="text;html=1;strokeColor=none;fillColor=none;align=center;verticalAlign=middle;whiteSpace=wrap;rounded=0;container=0;" parent="2X9QtguCRYKD3YLOp3lU-84" vertex="1">
          <mxGeometry width="160" height="50" as="geometry" />
        </mxCell>
        <mxCell id="2X9QtguCRYKD3YLOp3lU-92" value="" style="group" parent="1" vertex="1" connectable="0">
          <mxGeometry x="80" y="560" width="260" height="150" as="geometry" />
        </mxCell>
        <mxCell id="2X9QtguCRYKD3YLOp3lU-87" value="&lt;u&gt;Delete&lt;/u&gt;" style="rounded=0;whiteSpace=wrap;html=1;" parent="2X9QtguCRYKD3YLOp3lU-92" vertex="1">
          <mxGeometry x="170" width="90" height="20" as="geometry" />
        </mxCell>
        <mxCell id="2X9QtguCRYKD3YLOp3lU-89" value="&lt;i&gt;maze&lt;/i&gt;" style="rounded=0;whiteSpace=wrap;html=1;" parent="2X9QtguCRYKD3YLOp3lU-92" vertex="1">
          <mxGeometry y="20" width="260" height="130" as="geometry" />
        </mxCell>
        <mxCell id="2X9QtguCRYKD3YLOp3lU-90" value="" style="group" parent="2X9QtguCRYKD3YLOp3lU-92" vertex="1" connectable="0">
          <mxGeometry width="170" height="20" as="geometry" />
        </mxCell>
        <mxCell id="2X9QtguCRYKD3YLOp3lU-85" value="" style="rounded=0;whiteSpace=wrap;html=1;" parent="2X9QtguCRYKD3YLOp3lU-90" vertex="1">
          <mxGeometry width="170" height="20" as="geometry" />
        </mxCell>
        <mxCell id="2X9QtguCRYKD3YLOp3lU-86" value="w x h" style="text;html=1;strokeColor=none;fillColor=none;align=center;verticalAlign=middle;whiteSpace=wrap;rounded=0;" parent="2X9QtguCRYKD3YLOp3lU-90" vertex="1">
          <mxGeometry width="170" height="20" as="geometry" />
        </mxCell>
        <mxCell id="2X9QtguCRYKD3YLOp3lU-93" value="" style="group" parent="1" vertex="1" connectable="0">
          <mxGeometry x="380" y="560" width="300" height="150" as="geometry" />
        </mxCell>
        <mxCell id="2X9QtguCRYKD3YLOp3lU-94" value="&lt;u&gt;Delete&lt;/u&gt;" style="rounded=0;whiteSpace=wrap;html=1;" parent="2X9QtguCRYKD3YLOp3lU-93" vertex="1">
          <mxGeometry x="170" width="90" height="20" as="geometry" />
        </mxCell>
        <mxCell id="2X9QtguCRYKD3YLOp3lU-95" value="&lt;i&gt;maze&lt;/i&gt;" style="rounded=0;whiteSpace=wrap;html=1;" parent="2X9QtguCRYKD3YLOp3lU-93" vertex="1">
          <mxGeometry y="20" width="260" height="130" as="geometry" />
        </mxCell>
        <mxCell id="2X9QtguCRYKD3YLOp3lU-96" value="" style="group" parent="2X9QtguCRYKD3YLOp3lU-93" vertex="1" connectable="0">
          <mxGeometry width="170" height="20" as="geometry" />
        </mxCell>
        <mxCell id="2X9QtguCRYKD3YLOp3lU-97" value="" style="rounded=0;whiteSpace=wrap;html=1;" parent="2X9QtguCRYKD3YLOp3lU-96" vertex="1">
          <mxGeometry width="170" height="20" as="geometry" />
        </mxCell>
        <mxCell id="2X9QtguCRYKD3YLOp3lU-98" value="w x h" style="text;html=1;strokeColor=none;fillColor=none;align=center;verticalAlign=middle;whiteSpace=wrap;rounded=0;" parent="2X9QtguCRYKD3YLOp3lU-96" vertex="1">
          <mxGeometry width="170" height="20" as="geometry" />
        </mxCell>
        <mxCell id="2X9QtguCRYKD3YLOp3lU-99" value="" style="group" parent="1" vertex="1" connectable="0">
          <mxGeometry x="380" y="730" width="260" height="150" as="geometry" />
        </mxCell>
        <mxCell id="2X9QtguCRYKD3YLOp3lU-100" value="&lt;u&gt;Delete&lt;/u&gt;" style="rounded=0;whiteSpace=wrap;html=1;" parent="2X9QtguCRYKD3YLOp3lU-99" vertex="1">
          <mxGeometry x="170" width="90" height="20" as="geometry" />
        </mxCell>
        <mxCell id="2X9QtguCRYKD3YLOp3lU-101" value="&lt;i&gt;maze&lt;/i&gt;" style="rounded=0;whiteSpace=wrap;html=1;" parent="2X9QtguCRYKD3YLOp3lU-99" vertex="1">
          <mxGeometry y="20" width="260" height="130" as="geometry" />
        </mxCell>
        <mxCell id="2X9QtguCRYKD3YLOp3lU-102" value="" style="group" parent="2X9QtguCRYKD3YLOp3lU-99" vertex="1" connectable="0">
          <mxGeometry width="170" height="20" as="geometry" />
        </mxCell>
        <mxCell id="2X9QtguCRYKD3YLOp3lU-103" value="" style="rounded=0;whiteSpace=wrap;html=1;" parent="2X9QtguCRYKD3YLOp3lU-102" vertex="1">
          <mxGeometry width="170" height="20" as="geometry" />
        </mxCell>
        <mxCell id="2X9QtguCRYKD3YLOp3lU-104" value="w x h" style="text;html=1;strokeColor=none;fillColor=none;align=center;verticalAlign=middle;whiteSpace=wrap;rounded=0;" parent="2X9QtguCRYKD3YLOp3lU-102" vertex="1">
          <mxGeometry width="170" height="20" as="geometry" />
        </mxCell>
        <mxCell id="2X9QtguCRYKD3YLOp3lU-105" value="" style="group" parent="1" vertex="1" connectable="0">
          <mxGeometry x="80" y="730" width="260" height="150" as="geometry" />
        </mxCell>
        <mxCell id="2X9QtguCRYKD3YLOp3lU-106" value="&lt;u&gt;Delete&lt;/u&gt;" style="rounded=0;whiteSpace=wrap;html=1;" parent="2X9QtguCRYKD3YLOp3lU-105" vertex="1">
          <mxGeometry x="170" width="90" height="20" as="geometry" />
        </mxCell>
        <mxCell id="2X9QtguCRYKD3YLOp3lU-107" value="&lt;i&gt;maze&lt;/i&gt;" style="rounded=0;whiteSpace=wrap;html=1;" parent="2X9QtguCRYKD3YLOp3lU-105" vertex="1">
          <mxGeometry y="20" width="260" height="130" as="geometry" />
        </mxCell>
        <mxCell id="2X9QtguCRYKD3YLOp3lU-108" value="" style="group" parent="2X9QtguCRYKD3YLOp3lU-105" vertex="1" connectable="0">
          <mxGeometry width="170" height="20" as="geometry" />
        </mxCell>
        <mxCell id="2X9QtguCRYKD3YLOp3lU-109" value="" style="rounded=0;whiteSpace=wrap;html=1;" parent="2X9QtguCRYKD3YLOp3lU-108" vertex="1">
          <mxGeometry width="170" height="20" as="geometry" />
        </mxCell>
        <mxCell id="2X9QtguCRYKD3YLOp3lU-110" value="w x h" style="text;html=1;strokeColor=none;fillColor=none;align=center;verticalAlign=middle;whiteSpace=wrap;rounded=0;" parent="2X9QtguCRYKD3YLOp3lU-108" vertex="1">
          <mxGeometry width="170" height="20" as="geometry" />
        </mxCell>
        <mxCell id="2X9QtguCRYKD3YLOp3lU-111" value="" style="rounded=0;whiteSpace=wrap;html=1;" parent="1" vertex="1">
          <mxGeometry x="660" y="530" width="20" height="350" as="geometry" />
        </mxCell>
        <mxCell id="2X9QtguCRYKD3YLOp3lU-112" value="" style="rounded=0;whiteSpace=wrap;html=1;fillColor=#CCCCCC;" parent="1" vertex="1">
          <mxGeometry x="660" y="530" width="20" height="50" as="geometry" />
        </mxCell>
        <mxCell id="2X9QtguCRYKD3YLOp3lU-113" value="" style="endArrow=none;html=1;rounded=0;entryX=0;entryY=1;entryDx=0;entryDy=0;exitX=1;exitY=1;exitDx=0;exitDy=0;" parent="1" source="2X9QtguCRYKD3YLOp3lU-69" target="2X9QtguCRYKD3YLOp3lU-72" edge="1">
          <mxGeometry width="50" height="50" relative="1" as="geometry">
            <mxPoint x="520" y="370" as="sourcePoint" />
            <mxPoint x="570" y="320" as="targetPoint" />
          </mxGeometry>
        </mxCell>
        <mxCell id="2X9QtguCRYKD3YLOp3lU-114" value="&lt;i&gt;&lt;font style=&quot;font-size: 18px;&quot;&gt;username&lt;/font&gt;&lt;/i&gt;" style="text;html=1;strokeColor=none;fillColor=none;align=center;verticalAlign=middle;whiteSpace=wrap;rounded=0;" parent="1" vertex="1">
          <mxGeometry x="320" y="480" width="200" height="50" as="geometry" />
        </mxCell>
        <mxCell id="2X9QtguCRYKD3YLOp3lU-115" value="&lt;i&gt;&lt;font style=&quot;font-size: 18px;&quot;&gt;username&lt;/font&gt;&lt;/i&gt;" style="text;html=1;strokeColor=none;fillColor=none;align=center;verticalAlign=middle;whiteSpace=wrap;rounded=0;" parent="1" vertex="1">
          <mxGeometry x="320" y="40" width="200" height="50" as="geometry" />
        </mxCell>
        <mxCell id="-MlJ4U93pLIrl-fgL4Ss-1" value="Latest Saved Mazes" style="text;html=1;strokeColor=none;fillColor=none;align=center;verticalAlign=middle;whiteSpace=wrap;rounded=0;" vertex="1" parent="1">
          <mxGeometry x="80" y="140" width="100" height="30" as="geometry" />
        </mxCell>
        <mxCell id="-MlJ4U93pLIrl-fgL4Ss-2" value="&lt;i&gt;maze&lt;/i&gt;" style="rounded=0;whiteSpace=wrap;html=1;" vertex="1" parent="1">
          <mxGeometry x="70" y="180" width="120" height="60" as="geometry" />
        </mxCell>
        <mxCell id="-MlJ4U93pLIrl-fgL4Ss-3" value="&lt;i&gt;maze&lt;/i&gt;" style="rounded=0;whiteSpace=wrap;html=1;" vertex="1" parent="1">
          <mxGeometry x="70" y="260" width="120" height="60" as="geometry" />
        </mxCell>
        <mxCell id="-MlJ4U93pLIrl-fgL4Ss-4" value="&lt;i&gt;maze&lt;/i&gt;" style="rounded=0;whiteSpace=wrap;html=1;" vertex="1" parent="1">
          <mxGeometry x="70" y="340" width="120" height="60" as="geometry" />
        </mxCell>
      </root>
    </mxGraphModel>
  </diagram>
</mxfile>
